<?xml version="1.0" encoding="UTF-8"?>
<svg width="72px" height="50px" viewBox="0 0 72 50" version="1.1" xmlns="http://www.w3.org/2000/svg" xmlns:xlink="http://www.w3.org/1999/xlink">
    <!-- Generator: Sketch 51.1 (57501) - http://www.bohemiancoding.com/sketch -->
    <title>logos/Best Buy@1x</title>
    <desc>Created with Sketch.</desc>
    <defs></defs>
    <g id="Desktop-&amp;-Mobile" stroke="none" stroke-width="1" fill="none" fill-rule="evenodd">
        <g id="Desktop" transform="translate(-276.000000, -26.000000)">
            <g id="Header">
                <g id="logos/Best-Buy" transform="translate(276.000000, 26.000000)">
                    <g id="logo">
                        <path d="M12.9184,44.0822 L0.4724,29.7282 L2.0074,12.1752 L16.7334,0.4712 L71.5044,5.2632 L67.6894,48.8742 L12.9184,44.0822 Z M5.3064,23.6222 C6.3854,23.7162 7.3364,22.9182 7.4304,21.8392 C7.5254,20.7602 6.7264,19.8092 5.6484,19.7142 C4.5694,19.6202 3.6174,20.4182 3.5234,21.4972 C3.4284,22.5762 4.2274,23.5272 5.3064,23.6222 L5.3064,23.6222 Z" id="Fill-1" fill="#FFF100"></path>
                        <path d="M16.5924,-0.0002 L1.5694,11.9388 L0.0004,29.8808 L12.6944,44.5208 L68.1044,49.3698 L72.0004,4.8478 L16.5924,-0.0002 Z M13.1424,43.6428 L0.9444,29.5748 L2.4464,12.4108 L16.8754,0.9418 L71.0104,5.6788 L67.2744,48.3798 L13.1424,43.6428 Z" id="Fill-3" fill="#231F20"></path>
                        <path d="M3.9228,19.8157 C3.4278,20.2307 3.1248,20.8137 3.0678,21.4577 C3.0618,21.5297 3.0588,21.6007 3.0588,21.6727 C3.0588,22.2397 3.2558,22.7827 3.6248,23.2227 C4.0398,23.7177 4.6228,24.0207 5.2658,24.0767 C5.9098,24.1337 6.5368,23.9357 7.0308,23.5207 C7.5258,23.1057 7.8298,22.5227 7.8858,21.8787 C7.9418,21.2357 7.7448,20.6087 7.3298,20.1137 C6.9138,19.6187 6.3308,19.3157 5.6878,19.2597 C5.0448,19.2027 4.4178,19.4007 3.9228,19.8157 L3.9228,19.8157 Z M5.3458,23.1667 L5.3458,23.1667 C4.9458,23.1317 4.5828,22.9427 4.3248,22.6347 C4.0668,22.3277 3.9438,21.9377 3.9788,21.5367 C4.0138,21.1367 4.2028,20.7747 4.5098,20.5157 C4.8178,20.2577 5.2078,20.1347 5.6078,20.1697 C6.0088,20.2047 6.3708,20.3937 6.6288,20.7017 C6.8878,21.0087 7.0108,21.3987 6.9758,21.7997 C6.9408,22.1997 6.7518,22.5617 6.4438,22.8207 C6.1358,23.0787 5.7458,23.2017 5.3458,23.1667 L5.3458,23.1667 Z" id="Fill-4" fill="#231F20"></path>
                        <path d="M52.1066,27.1825 L53.8466,30.7755 L54.0406,30.7925 C54.2716,30.3935 54.4776,29.9925 54.7556,29.6145 L56.2566,27.5455 L63.7316,28.1985 L56.8196,35.0885 L56.3266,40.7225 L49.8226,40.1535 L50.3156,34.5195 L44.5826,26.5245 L52.1066,27.1825 Z" id="Fill-6" fill="#231F20"></path>
                        <path d="M44.801,26.5437 L44.125,34.2757 C43.792,38.0897 40.411,39.5407 35.472,39.1087 C30.534,38.6767 27.456,36.6607 27.79,32.8467 L28.466,25.1147 L34.878,25.6757 L34.242,32.9567 C34.152,33.9797 34.12,34.8847 35.829,35.0347 C37.537,35.1837 37.663,34.2867 37.752,33.2637 L38.389,25.9827 L44.801,26.5437 Z" id="Fill-8" fill="#231F20"></path>
                        <path d="M12.3698,23.6819 L20.1118,24.3589 C23.6548,24.6689 27.2188,25.5919 26.9548,28.6089 C26.8548,29.7539 25.9548,30.8099 24.3208,31.0339 L24.3118,31.1379 C26.2578,31.8149 27.4288,32.9649 27.2928,34.5249 C27.0578,37.2129 23.4818,37.8259 20.2788,37.5459 L11.2258,36.7529 L12.3698,23.6819 Z M18.7008,29.3019 C19.6718,29.3869 20.7698,29.4129 20.8488,28.5119 C20.9338,27.5409 19.6898,27.5019 18.7188,27.4169 L18.2578,27.3769 L18.0948,29.2489 L18.7008,29.3019 Z M17.6638,34.1719 L18.4158,34.2379 C19.5078,34.3339 21.0868,34.4539 21.1808,33.3799 C21.2768,32.2869 19.5768,32.1559 18.5078,32.0629 L17.8528,32.0049 L17.6638,34.1719 Z" id="Fill-10" fill="#231F20"></path>
                        <polygon id="Fill-13" fill="#231F20" points="27.3373 10.2667 39.6423 11.3427 39.3293 14.9137 33.7233 14.4237 33.6143 15.6717 38.7353 16.1197 38.4383 19.5177 33.3163 19.0697 33.2053 20.3527 39.0053 20.8597 38.6933 24.4307 26.1943 23.3387"></polygon>
                        <path d="M41.4753,19.9584 L41.7983,20.1784 C42.9303,20.9414 44.3153,21.6044 45.8443,21.7374 C46.4993,21.7954 47.5603,21.6954 47.6113,21.1064 C47.6633,20.5164 46.7933,20.3884 46.1943,20.2484 L44.8753,19.9584 C42.3073,19.4024 40.2183,18.1194 40.3973,16.0734 C40.6683,12.9704 44.7763,11.5824 48.7563,11.9304 C50.8433,12.1124 52.7283,12.6444 54.4563,13.5814 L52.3673,16.7704 C51.2753,16.1164 50.0273,15.5704 48.5953,15.4454 C48.0133,15.3944 47.1493,15.4754 47.1033,16.0134 C47.0603,16.4984 47.8793,16.6404 48.3813,16.7714 L49.8653,17.1454 C52.6413,17.8424 54.5853,19.0954 54.3913,21.3144 C54.1183,24.4354 50.0033,25.6294 46.0473,25.2844 C43.7423,25.0824 41.1113,24.3984 39.1143,23.4724 L41.4753,19.9584 Z" id="Fill-14" fill="#231F20"></path>
                        <polygon id="Fill-16" fill="#231F20" points="54.9714 12.6837 68.9504 13.9057 68.5794 18.1537 64.9254 17.7117 64.1434 26.6567 57.4924 26.0757 58.2754 17.1297 54.6004 16.9307"></polygon>
                        <path d="M10.9936,8.7637 L18.7356,9.4417 C22.2786,9.7507 25.8416,10.6747 25.5786,13.6907 C25.4776,14.8347 24.5786,15.8917 22.9446,16.1157 L22.9356,16.2197 C24.8816,16.8967 26.0526,18.0477 25.9166,19.6077 C25.6816,22.2947 22.1056,22.9077 18.9026,22.6277 L9.8496,21.8357 L10.9936,8.7637 Z M17.3246,14.3837 C18.2956,14.4687 19.3936,14.4947 19.4726,13.5937 C19.5576,12.6227 18.3136,12.5837 17.3426,12.4987 L16.8816,12.4587 L16.7176,14.3307 L17.3246,14.3837 Z M16.2876,19.2547 L17.0396,19.3197 C18.1316,19.4157 19.7106,19.5367 19.8046,18.4617 C19.9006,17.3697 18.1996,17.2377 17.1326,17.1447 L16.4766,17.0877 L16.2876,19.2547 Z" id="Fill-17" fill="#231F20"></path>
                        <path d="M64.0702,28.7838 C64.0982,28.4228 64.4122,28.1558 64.7752,28.1828 C65.1362,28.2118 65.4062,28.5248 65.3772,28.8858 C65.3492,29.2508 65.0352,29.5178 64.6742,29.4898 C64.3112,29.4618 64.0412,29.1488 64.0702,28.7838 L64.0702,28.7838 Z M65.2712,28.8788 C65.2952,28.5738 65.0772,28.3148 64.7672,28.2898 C64.4582,28.2658 64.1992,28.4888 64.1762,28.7938 C64.1512,29.1048 64.3732,29.3608 64.6822,29.3828 C64.9932,29.4098 65.2472,29.1878 65.2712,28.8788 L65.2712,28.8788 Z M65.0052,29.2248 L64.8872,29.2158 L64.7052,28.8688 L64.5632,28.8578 L64.5382,29.1888 L64.4342,29.1808 L64.4922,28.4468 L64.8122,28.4718 C64.8732,28.4768 64.9352,28.4808 64.9872,28.5258 C65.0382,28.5608 65.0652,28.6288 65.0582,28.6888 C65.0472,28.8398 64.9382,28.8838 64.8112,28.8778 L65.0052,29.2248 Z M64.6942,28.7888 C64.7962,28.7968 64.9422,28.8228 64.9542,28.6778 C64.9622,28.5748 64.8752,28.5568 64.7862,28.5498 L64.5892,28.5348 L64.5692,28.7788 L64.6942,28.7888 Z" id="Fill-19" fill="#231F20"></path>
                        <path d="M66.6621,29.0571 C66.6651,28.9321 66.6691,28.7801 66.6771,28.6701 L66.6751,28.6701 C66.6351,28.7711 66.5911,28.8811 66.5361,29.0001 L66.3451,29.4211 L66.2571,29.4141 L66.1451,28.9781 C66.1121,28.8471 66.0871,28.7311 66.0701,28.6231 L66.0671,28.6231 C66.0561,28.7341 66.0381,28.8821 66.0201,29.0161 L65.9661,29.3971 L65.8561,29.3881 L65.9881,28.5011 L66.1341,28.5121 L66.2531,28.9551 C66.2821,29.0691 66.3031,29.1691 66.3201,29.2631 L66.3231,29.2631 C66.3531,29.1751 66.3931,29.0801 66.4411,28.9701 L66.6341,28.5511 L66.7801,28.5631 L66.7671,29.4591 L66.6531,29.4511 L66.6621,29.0571 Z" id="Fill-21" fill="#231F20"></path>
                        <path d="M67.0112,28.5924 C67.0832,28.5874 67.1672,28.5864 67.2582,28.5934 C67.4242,28.6064 67.5392,28.6524 67.6112,28.7314 C67.6872,28.8104 67.7252,28.9184 67.7132,29.0624 C67.7032,29.2084 67.6462,29.3234 67.5582,29.3994 C67.4672,29.4764 67.3262,29.5104 67.1522,29.4974 C67.0692,29.4904 67.0012,29.4824 66.9422,29.4704 L67.0112,28.5924 Z M67.0662,29.3914 C67.0952,29.3994 67.1372,29.4024 67.1822,29.4064 C67.4282,29.4264 67.5732,29.2984 67.5922,29.0574 C67.6102,28.8444 67.5012,28.7044 67.2572,28.6844 C67.1972,28.6804 67.1522,28.6814 67.1212,28.6864 L67.0662,29.3914 Z" id="Fill-23" fill="#231F20"></path>
                    </g>
                </g>
            </g>
        </g>
    </g>
</svg>