<?xml version="1.0" encoding="UTF-8"?>
<svg width="55px" height="40px" viewBox="0 0 55 40" version="1.1" xmlns="http://www.w3.org/2000/svg" xmlns:xlink="http://www.w3.org/1999/xlink">
    <!-- Generator: Sketch 51.1 (57501) - http://www.bohemiancoding.com/sketch -->
    <title>E3@1x</title>
    <desc>Created with Sketch.</desc>
    <defs></defs>
    <g id="Desktop-&amp;-Mobile" stroke="none" stroke-width="1" fill="none" fill-rule="evenodd">
        <g id="Desktop" transform="translate(-372.000000, -31.000000)" fill="#F8E71C">
            <g id="Header">
                <path d="M394.557233,70.4677312 L372,70.4677312 L372,31.5588822 L394.557233,31.5588822 L394.557233,38.3186959 L380.30492,38.3186959 L380.30492,46.8616101 L393.566001,46.8616101 L393.566001,53.6214238 L380.30492,53.6214238 L380.30492,63.6546906 L394.557233,63.6546906 L394.557233,70.4677312 Z M425.848027,40.261477 C425.848027,42.6921834 425.106843,44.7591399 423.624452,46.4624085 C422.142061,48.1656772 420.061387,49.3366568 417.382367,49.9753826 L417.382367,50.1350632 C420.543611,50.5253956 422.936832,51.4790343 424.562104,52.996008 C426.187376,54.5129816 427,56.5577605 427,59.1304059 C427,62.8740484 425.63372,65.788191 422.90112,67.8729208 C420.16852,69.9576507 416.26614,71 411.193863,71 C406.943151,71 403.17472,70.2991864 399.888456,68.8975383 L399.888456,61.8982036 C401.406567,62.661126 403.076464,63.2821001 404.898198,63.7611444 C406.719931,64.2401887 408.523777,64.4797073 410.309791,64.4797073 C413.042391,64.4797073 415.060555,64.0184122 416.364345,63.0958084 C417.668134,62.1732045 418.320019,60.6917379 418.320019,58.6513639 C418.320019,56.8238986 417.569905,55.5287242 416.069654,54.7658017 C414.569403,54.0028793 412.176181,53.6214238 408.889917,53.6214238 L405.91622,53.6214238 L405.91622,47.3140386 L408.943497,47.3140386 C411.97972,47.3140386 414.198808,46.9192765 415.600828,46.1297405 C417.002848,45.3402045 417.703848,43.9873682 417.703848,42.071191 C417.703848,39.1259556 415.846422,37.6533599 412.131515,37.6533599 C410.845585,37.6533599 409.53735,37.8662653 408.206771,38.2920825 C406.876191,38.7178997 405.398287,39.4541975 403.773015,40.500998 L399.942036,34.8323353 C403.514062,32.2774323 407.77364,31 412.720896,31 C416.775146,31 419.976527,31.8161373 422.325134,33.4484365 C424.673741,35.0807356 425.848027,37.3517264 425.848027,40.261477 Z" id="E3"></path>
            </g>
        </g>
    </g>
</svg>