<?xml version="1.0" encoding="UTF-8"?>
<svg width="350px" height="204px" viewBox="0 0 350 204" version="1.1" xmlns="http://www.w3.org/2000/svg" xmlns:xlink="http://www.w3.org/1999/xlink">
    <!-- Generator: Sketch 51.1 (57501) - http://www.bohemiancoding.com/sketch -->
    <title>left-thumb-up_small</title>
    <desc>Created with Sketch.</desc>
    <defs></defs>
    <g id="Symbols" stroke="none" stroke-width="1" fill="none" fill-rule="evenodd">
        <g id="E3/mainfeature/pre-E3" transform="translate(0.000000, -291.000000)">
            <g id="Hero">
                <g id="colour/dark-blue-+-E3/creative/internal/vector/elements/icons/group-Mask">
                    <g id="left-thumb-up" style="mix-blend-mode: lighten;" transform="translate(147.055486, 424.738645) rotate(-30.000000) translate(-147.055486, -424.738645) translate(-74.936138, 353.128444)">
                        <g id="Page-1">
                            <polygon id="Fill-1" fill="#12406B" points="1.20325203 22.7890514 310.439024 24.0336134 294.564761 8.45289067 1.20325203 7.21008403"></polygon>
                            <g id="Group-110">
                                <polygon id="Stroke-2" stroke="#90D6E9" stroke-width="1.2" stroke-linecap="round" stroke-linejoin="round" points="310.205834 24.5431443 294.337346 8.47646076 1.08256585 7.19489114 1.08256585 23.2615747"></polygon>
                                <path d="M318.320746,15.7531696 C318.320746,24.3132582 311.402649,31.2514734 302.86738,31.2514734 C294.333917,31.2514734 287.41582,24.3132582 287.41582,15.7531696 C287.41582,7.19308101 294.333917,0.254865823 302.86738,0.254865823 C311.402649,0.254865823 318.320746,7.19308101 318.320746,15.7531696" id="Fill-4" fill="#FFF200"></path>
                                <path d="M318.320746,15.7531696 C318.320746,24.3132582 311.402649,31.2514734 302.86738,31.2514734 C294.333917,31.2514734 287.41582,24.3132582 287.41582,15.7531696 C287.41582,7.19308101 294.333917,0.254865823 302.86738,0.254865823 C311.402649,0.254865823 318.320746,7.19308101 318.320746,15.7531696 Z" id="Stroke-6" stroke="#000000" stroke-linecap="round" stroke-linejoin="round"></path>
                                <path d="M302.435654,4.70940633 C306.525507,4.70940633 310.093751,6.94491266 311.992483,10.2628747" id="Stroke-8" stroke="#FFFFFF" stroke-width="2" stroke-linecap="round" stroke-linejoin="round"></path>
                                <polygon id="Fill-10" fill="#9197B0" points="336.568785 59.3173051 333.935468 34.033457 1.08346829 32.7518873 1.08346829 58.3163051"></polygon>
                                <path d="M373.526551,44.5763582 L371.023185,51.9996873 C370.530454,53.3446114 369.077527,54.3582823 367.640844,54.3582823 L361.266015,54.1645987 C360.930307,54.1645987 360.612649,54.0288392 360.37982,53.7935228 C360.325673,53.739219 360.275137,53.6776747 360.23182,53.6125101 C359.997185,53.2667759 359.948454,52.8269152 360.098259,52.4359278 L362.096259,43.7545608 C362.28938,43.2495354 362.780307,42.9255228 363.314551,42.9490544 L372.35699,42.8531177 C372.770307,42.8531177 373.154746,43.0594722 373.38938,43.4033962 C373.62221,43.7473203 373.674551,44.187181 373.526551,44.5763582 Z M352.53582,43.8649785 L350.499917,49.2338139 C349.9386,50.8068139 348.175234,52.0377 346.487673,52.0177886 L340.246405,51.938143 C339.852941,51.9327127 339.477527,51.7698013 339.199576,51.4892316 C339.1346,51.4240671 339.076844,51.351662 339.024502,51.2738266 C338.744746,50.864738 338.679771,50.3470418 338.853039,49.8908899 L341.230063,42.6322823 C341.452063,42.042181 342.026015,41.6692949 342.654112,41.7036873 L351.138844,41.8249658 C351.624356,41.8303962 352.079185,42.0765734 352.358941,42.485662 C352.638698,42.8929405 352.703673,43.4088266 352.53582,43.8649785 Z M336.954307,26.8443582 L346.617624,26.8443582 L346.617624,32.0484722 L336.954307,32.0502823 L336.954307,26.8443582 Z M383.491283,33.9436747 C382.883039,33.9291937 381.625039,33.9147127 381.267673,33.905662 C381.02582,33.3083203 380.666649,32.7598519 380.210015,32.2982696 C379.294941,31.3714848 378.078454,30.8610291 376.787966,30.8610291 L351.398746,30.8610291 L351.398746,28.0788646 L351.974502,28.0770544 C352.882356,28.0770544 353.745088,27.7602823 354.405673,27.1864722 C355.120405,26.5637886 355.531917,25.682257 355.530112,24.768143 L355.530112,22.8041557 C355.531917,21.9714975 355.198015,21.1750418 354.595185,20.563219 C353.923771,19.8844215 352.967185,19.4952443 351.974502,19.4952443 L332.360893,19.4952443 C330.861039,19.4952443 329.936941,20.4347 329.011039,21.6891177 L327.6646,23.6512949 C327.052746,24.7156494 327.455234,25.8940418 328.197039,26.7918646 C328.258405,26.8660797 328.325185,26.9384848 328.393771,27.0090797 C329.065185,27.6878772 330.019966,28.0788646 331.014454,28.0770544 L331.59382,28.0770544 L331.59382,30.8610291 L330.575868,30.8610291 C328.220502,30.8610291 325.88499,32.560738 325.134161,34.8179658 C325.128746,34.8324468 325.123332,34.8469278 325.119722,34.8577886 C325.116112,34.8704595 325.112502,34.8831304 325.108893,34.8939911 L322.71382,41.2276241 C322.277039,42.5888392 322.466551,43.9880671 323.235429,45.0669025 C323.358161,45.2388646 323.495332,45.4017759 323.643332,45.5520165 C324.018746,45.932143 324.462746,46.2308139 324.955478,46.4371684 L319.730356,60.7335481 C319.2286,62.1056241 319.3766,63.5265734 320.136454,64.6343709 C320.266405,64.8226241 320.4126,65.0000165 320.573234,65.1629278 C321.345722,65.9449025 322.425039,66.3757127 323.609039,66.3757127 L330.03621,66.3757127 C332.359088,66.3757127 334.721673,64.7122063 335.528454,62.5038519 L338.122063,55.4027253 L349.407966,55.4027253 C351.712795,55.4027253 353.880454,49.9307127 353.880454,49.9307127 L354.943527,54.4868013 C355.392941,56.1847 355.539137,57.1694089 356.607624,58.0762823 C357.472161,58.8093835 358.598405,59.1533076 359.728259,59.1533076 L369.747137,59.1533076 C373.001332,59.1533076 375.896356,57.0608013 376.957624,53.9329025 L376.968454,53.9039405 L380.798405,41.6168013 L382.556356,41.6168013 C383.653722,41.6168013 384.673478,41.1135861 385.362941,40.2175734 C385.868307,39.5604975 386.097527,38.7260291 386.097527,37.8933709 L386.097527,35.9022316 C386.097527,34.8396873 384.539917,33.9708266 383.491283,33.9436747 Z" id="Fill-12" fill="#90D6E8"></path>
                                <path d="M373.526551,44.5763582 L371.023185,51.9996873 C370.530454,53.3446114 369.077527,54.3582823 367.640844,54.3582823 L361.266015,54.1645987 C360.930307,54.1645987 360.612649,54.0288392 360.37982,53.7935228 C360.325673,53.739219 360.275137,53.6776747 360.23182,53.6125101 C359.997185,53.2667759 359.948454,52.8269152 360.098259,52.4359278 L362.096259,43.7545608 C362.28938,43.2495354 362.780307,42.9255228 363.314551,42.9490544 L372.35699,42.8531177 C372.770307,42.8531177 373.154746,43.0594722 373.38938,43.4033962 C373.62221,43.7473203 373.674551,44.187181 373.526551,44.5763582 Z M352.53582,43.8649785 L350.499917,49.2338139 C349.9386,50.8068139 348.175234,52.0377 346.487673,52.0177886 L340.246405,51.938143 C339.852941,51.9327127 339.477527,51.7698013 339.199576,51.4892316 C339.1346,51.4240671 339.076844,51.351662 339.024502,51.2738266 C338.744746,50.864738 338.679771,50.3470418 338.853039,49.8908899 L341.230063,42.6322823 C341.452063,42.042181 342.026015,41.6692949 342.654112,41.7036873 L351.138844,41.8249658 C351.624356,41.8303962 352.079185,42.0765734 352.358941,42.485662 C352.638698,42.8929405 352.703673,43.4088266 352.53582,43.8649785 Z M336.954307,26.8443582 L346.617624,26.8443582 L346.617624,32.0484722 L336.954307,32.0502823 L336.954307,26.8443582 Z M383.491283,33.9436747 C382.883039,33.9291937 381.625039,33.9147127 381.267673,33.905662 C381.02582,33.3083203 380.666649,32.7598519 380.210015,32.2982696 C379.294941,31.3714848 378.078454,30.8610291 376.787966,30.8610291 L351.398746,30.8610291 L351.398746,28.0788646 L351.974502,28.0770544 C352.882356,28.0770544 353.745088,27.7602823 354.405673,27.1864722 C355.120405,26.5637886 355.531917,25.682257 355.530112,24.768143 L355.530112,22.8041557 C355.531917,21.9714975 355.198015,21.1750418 354.595185,20.563219 C353.923771,19.8844215 352.967185,19.4952443 351.974502,19.4952443 L332.360893,19.4952443 C330.861039,19.4952443 329.936941,20.4347 329.011039,21.6891177 L327.6646,23.6512949 C327.052746,24.7156494 327.455234,25.8940418 328.197039,26.7918646 C328.258405,26.8660797 328.325185,26.9384848 328.393771,27.0090797 C329.065185,27.6878772 330.019966,28.0788646 331.014454,28.0770544 L331.59382,28.0770544 L331.59382,30.8610291 L330.575868,30.8610291 C328.220502,30.8610291 325.88499,32.560738 325.134161,34.8179658 C325.128746,34.8324468 325.123332,34.8469278 325.119722,34.8577886 C325.116112,34.8704595 325.112502,34.8831304 325.108893,34.8939911 L322.71382,41.2276241 C322.277039,42.5888392 322.466551,43.9880671 323.235429,45.0669025 C323.358161,45.2388646 323.495332,45.4017759 323.643332,45.5520165 C324.018746,45.932143 324.462746,46.2308139 324.955478,46.4371684 L319.730356,60.7335481 C319.2286,62.1056241 319.3766,63.5265734 320.136454,64.6343709 C320.266405,64.8226241 320.4126,65.0000165 320.573234,65.1629278 C321.345722,65.9449025 322.425039,66.3757127 323.609039,66.3757127 L330.03621,66.3757127 C332.359088,66.3757127 334.721673,64.7122063 335.528454,62.5038519 L338.122063,55.4027253 L349.407966,55.4027253 C351.712795,55.4027253 353.880454,49.9307127 353.880454,49.9307127 L354.943527,54.4868013 C355.392941,56.1847 355.539137,57.1694089 356.607624,58.0762823 C357.472161,58.8093835 358.598405,59.1533076 359.728259,59.1533076 L369.747137,59.1533076 C373.001332,59.1533076 375.896356,57.0608013 376.957624,53.9329025 L376.968454,53.9039405 L380.798405,41.6168013 L382.556356,41.6168013 C383.653722,41.6168013 384.673478,41.1135861 385.362941,40.2175734 C385.868307,39.5604975 386.097527,38.7260291 386.097527,37.8933709 L386.097527,35.9022316 C386.097527,34.8396873 384.539917,33.9708266 383.491283,33.9436747 Z" id="Stroke-14" stroke="#000000" stroke-width="1.2" stroke-linecap="round" stroke-linejoin="round"></path>
                                <path d="M336.912434,43.0341304 L330.38419,60.3552316 L323.967849,60.3552316 L329.046776,46.5819785 C329.414971,45.588219 329.275995,44.4786114 328.674971,43.6188013 C328.60819,43.5228646 327.615507,43.1228266 327.537898,43.0341304 L336.912434,43.0341304 Z" id="Fill-16" fill="#12406B"></path>
                                <path d="M336.912434,43.0341304 L330.38419,60.3552316 L323.967849,60.3552316 L329.046776,46.5819785 C329.414971,45.588219 329.275995,44.4786114 328.674971,43.6188013 C328.60819,43.5228646 327.615507,43.1228266 327.537898,43.0341304 L336.912434,43.0341304 Z" id="Stroke-18" stroke="#000000" stroke-width="1.2" stroke-linecap="round" stroke-linejoin="round"></path>
                                <g id="Group-23" transform="translate(329.691057, 36.202532)">
                                    <path d="M0.0406699187,0.999008861 L26.1103285,0.999008861" id="Fill-20" fill="#FFFFFF"></path>
                                    <path d="M0.0406699187,0.999008861 L26.1103285,0.999008861" id="Stroke-22" stroke="#231F20" stroke-width="1.2" stroke-linecap="round" stroke-linejoin="round"></path>
                                </g>
                                <g id="Group-27" transform="translate(362.780488, 36.202532)">
                                    <path d="M0.652643902,0.968055696 L14.1368878,0.968055696" id="Fill-24" fill="#FFFFFF"></path>
                                    <path d="M0.652643902,0.968055696 L14.1368878,0.968055696" id="Stroke-26" stroke="#231F20" stroke-width="1.2" stroke-linecap="round" stroke-linejoin="round"></path>
                                </g>
                                <g id="Group-31" transform="translate(324.878049, 56.113924)">
                                    <path d="M6.99967805,0.281293671 L0.931678049,0.281293671" id="Fill-28" fill="#FFFFFF"></path>
                                    <path d="M6.99967805,0.281293671 L0.931678049,0.281293671" id="Stroke-30" stroke="#231F20" stroke-width="1.2" stroke-linecap="round" stroke-linejoin="round"></path>
                                </g>
                                <path d="M344.091517,47.547138 C344.012102,47.547138 343.930883,47.5380873 343.847859,47.5181759 C342.598883,47.2267456 341.53942,46.2691886 341.144151,45.0835557 C340.909517,44.3830367 340.712785,42.9693278 342.010493,41.3872772 C342.393127,40.9256949 343.066346,40.8623405 343.524785,41.2442772 C343.979615,41.6280241 344.04459,42.3158722 343.665566,42.7756443 C343.183663,43.3639354 343.01942,43.9069734 343.180054,44.3884671 C343.364151,44.9405557 343.905615,45.2989608 344.333371,45.3985177 C344.910932,45.5342772 345.271907,46.1189481 345.138346,46.7054291 C345.022834,47.2068342 344.580639,47.547138 344.091517,47.547138" id="Fill-32" fill="#231F20"></path>
                                <polygon id="Fill-34" fill="#90D6E8" points="263.216556 126.931868 237.48802 100.880527 1.0832878 99.598957 1.0832878 125.650299"></polygon>
                                <path d="M392.408102,50.893338 C396.248883,49.6353 398.597029,45.4050342 400.042737,42.0526797 C402.336737,36.736338 401.203273,33.0853127 401.39459,30.2126418 C401.524541,28.2920975 401.788054,27.0413 402.681468,26.1489076 C403.778834,25.0519709 405.16859,24.6428823 406.598054,24.9922367 C407.646688,25.2510848 410.245712,26.3516418 411.727517,30.9692747 C412.882639,34.5696165 413.642493,38.7600595 413.869907,42.7658696 C414.137029,47.4721987 413.619029,51.9631228 412.406151,55.0801608 C412.384493,55.1362747 412.389907,55.2014392 412.422395,55.2539329 C412.456688,55.3046165 412.512639,55.3371987 412.5722,55.340819 L438.062493,56.4956797 C441.031517,56.6314392 443.339956,59.1855278 443.206395,62.1921481 L443.081859,65.0123253 C442.948298,68.0189456 440.441322,70.0010342 437.472298,69.8652747 L437.490346,69.8670848 C437.385663,69.8616544 437.299029,69.9431101 437.293615,70.0480975 C437.2882,70.1530848 437.36942,70.241781 437.472298,70.2472114 C440.441322,70.3811608 442.749761,72.9370595 442.6162,75.9436797 L442.491663,78.763857 C442.358102,81.7704772 439.834883,84.1055405 436.865859,83.9715911 L434.079127,83.8466924 C433.976249,83.841262 433.88781,83.9227177 433.882395,84.0277051 C433.878785,84.1326924 433.9582,84.2213886 434.062883,84.226819 C437.031907,84.3607684 439.338541,86.9166671 439.20498,89.9214772 L439.080444,92.7434646 C438.948688,95.7500848 436.425468,98.0851481 433.456444,97.9511987 L430.669712,97.8226797 C430.566834,97.8190595 430.478395,97.9005152 430.47298,98.0055025 C430.467566,98.1104899 430.548785,98.1991861 430.651663,98.2046165 C433.620688,98.3385658 434.876883,100.845591 434.745127,103.852211 L434.618785,106.674199 C434.485224,109.680819 431.96381,112.015882 428.994785,111.881933 C428.994785,111.881933 398.2902,111.290022 395.155127,111.300882 C392.196932,111.309933 380.333468,112.624085 379.488785,99.9169962 C379.302883,97.1094899 376.647907,96.510338 376.647907,96.510338 L1.08346829,96.510338 L1.08346829,62.0998316 L382.335078,62.0998316 C382.335078,62.0998316 382.732151,58.0234266 383.921566,56.1010722 C385.684932,53.2519329 388.861517,52.0554392 392.408102,50.893338" id="Fill-36" fill="#12406B"></path>
                                <path d="M392.408102,50.893338 C396.248883,49.6353 398.597029,45.4050342 400.042737,42.0526797 C402.336737,36.736338 401.203273,33.0853127 401.39459,30.2126418 C401.524541,28.2920975 401.788054,27.0413 402.681468,26.1489076 C403.778834,25.0519709 405.16859,24.6428823 406.598054,24.9922367 C407.646688,25.2510848 410.245712,26.3516418 411.727517,30.9692747 C412.882639,34.5696165 413.642493,38.7600595 413.869907,42.7658696 C414.137029,47.4721987 413.619029,51.9631228 412.406151,55.0801608 C412.384493,55.1362747 412.389907,55.2014392 412.422395,55.2539329 C412.456688,55.3046165 412.512639,55.3371987 412.5722,55.340819 L438.062493,56.4956797 C441.031517,56.6314392 443.339956,59.1855278 443.206395,62.1921481 L443.081859,65.0123253 C442.948298,68.0189456 440.441322,70.0010342 437.472298,69.8652747 L437.490346,69.8670848 C437.385663,69.8616544 437.299029,69.9431101 437.293615,70.0480975 C437.2882,70.1530848 437.36942,70.241781 437.472298,70.2472114 C440.441322,70.3811608 442.749761,72.9370595 442.6162,75.9436797 L442.491663,78.763857 C442.358102,81.7704772 439.834883,84.1055405 436.865859,83.9715911 L434.079127,83.8466924 C433.976249,83.841262 433.88781,83.9227177 433.882395,84.0277051 C433.878785,84.1326924 433.9582,84.2213886 434.062883,84.226819 C437.031907,84.3607684 439.338541,86.9166671 439.20498,89.9214772 L439.080444,92.7434646 C438.948688,95.7500848 436.425468,98.0851481 433.456444,97.9511987 L430.669712,97.8226797 C430.566834,97.8190595 430.478395,97.9005152 430.47298,98.0055025 C430.467566,98.1104899 430.548785,98.1991861 430.651663,98.2046165 C433.620688,98.3385658 434.876883,100.845591 434.745127,103.852211 L434.618785,106.674199 C434.485224,109.680819 431.96381,112.015882 428.994785,111.881933 C428.994785,111.881933 398.2902,111.290022 395.155127,111.300882 C392.196932,111.309933 380.333468,112.624085 379.488785,99.9169962 C379.302883,97.1094899 376.647907,96.510338 376.647907,96.510338 L1.08346829,96.510338 L1.08346829,62.0998316 L382.335078,62.0998316 C382.335078,62.0998316 382.732151,58.0234266 383.921566,56.1010722 C385.684932,53.2519329 388.861517,52.0554392 392.408102,50.893338 Z" id="Stroke-38" stroke="#90D6E9" stroke-width="1.2" stroke-linecap="round" stroke-linejoin="round"></path>
                                <polygon id="Fill-40" fill="#90D6E8" points="251.412473 28.4903063 267.842278 45.1253696 1.08310732 43.8438 1.08310732 27.2087367"></polygon>
                                <polygon id="Fill-42" fill="#12406B" points="313.701161 111.079142 318.511161 90.4020658 307.315502 79.0670532 1.0818439 77.7854835 1.0818439 109.797572"></polygon>
                                <polygon id="Stroke-44" stroke="#90D6E9" stroke-width="1.2" stroke-linecap="round" stroke-linejoin="round" points="313.701161 111.079142 318.511161 90.4020658 307.315502 79.0670532 1.0818439 77.7854835 1.0818439 109.797572"></polygon>
                                <path d="M310.199698,117.193568 C309.324332,117.191758 308.398429,116.413404 308.400234,115.680303 L308.418283,102.607568 C308.420088,102.013847 307.945405,101.535973 307.362429,101.534163 L294.450332,101.516062 C294.125454,101.514252 293.780722,101.329619 293.502771,101.011037 C293.190527,100.649011 293.013649,100.174758 293.037112,99.7475684 C293.038917,99.7294671 293.038917,99.7095557 293.038917,99.6896443 L293.053356,89.8262646 C293.053356,88.9393025 293.822234,88.0034671 294.547795,88.0034671 L307.458088,88.0233785 C308.042868,88.0233785 308.517551,87.5436949 308.517551,86.9517835 L308.537405,73.8790494 C308.537405,73.1459481 309.465112,72.3694038 310.340478,72.3712139 L320.003795,72.3838848 C320.879161,72.3856949 321.805063,73.1640494 321.803259,73.8989608 L321.78521,86.9716949 C321.783405,87.5636063 322.258088,88.0432899 322.842868,88.0432899 L335.753161,88.0632013 C336.491356,88.0632013 337.24399,89.0243785 337.242185,89.9674544 L337.229551,99.7511886 C337.227746,100.638151 336.458868,101.575796 335.733307,101.573986 L322.823015,101.555885 C322.238234,101.554075 321.763551,102.033758 321.763551,102.62567 L321.743698,115.700214 C321.743698,116.433315 320.81599,117.209859 319.940624,117.208049 L310.199698,117.193568 Z" id="Fill-46" fill="#9197B0"></path>
                                <path d="M310.199698,117.193568 C309.324332,117.191758 308.398429,116.413404 308.400234,115.680303 L308.418283,102.607568 C308.420088,102.013847 307.945405,101.535973 307.362429,101.534163 L294.450332,101.516062 C294.125454,101.514252 293.780722,101.329619 293.502771,101.011037 C293.190527,100.649011 293.013649,100.174758 293.037112,99.7475684 C293.038917,99.7294671 293.038917,99.7095557 293.038917,99.6896443 L293.053356,89.8262646 C293.053356,88.9393025 293.822234,88.0034671 294.547795,88.0034671 L307.458088,88.0233785 C308.042868,88.0233785 308.517551,87.5436949 308.517551,86.9517835 L308.537405,73.8790494 C308.537405,73.1459481 309.465112,72.3694038 310.340478,72.3712139 L320.003795,72.3838848 C320.879161,72.3856949 321.805063,73.1640494 321.803259,73.8989608 L321.78521,86.9716949 C321.783405,87.5636063 322.258088,88.0432899 322.842868,88.0432899 L335.753161,88.0632013 C336.491356,88.0632013 337.24399,89.0243785 337.242185,89.9674544 L337.229551,99.7511886 C337.227746,100.638151 336.458868,101.575796 335.733307,101.573986 L322.823015,101.555885 C322.238234,101.554075 321.763551,102.033758 321.763551,102.62567 L321.743698,115.700214 C321.743698,116.433315 320.81599,117.209859 319.940624,117.208049 L310.199698,117.193568 Z" id="Stroke-48" stroke="#000000" stroke-width="1.2" stroke-linecap="round" stroke-linejoin="round"></path>
                                <polygon id="Fill-50" fill="#90D6E8" points="311.369259 107.953777 318.872137 107.964638 315.112576 113.57241"></polygon>
                                <polygon id="Stroke-52" stroke="#000000" stroke-width="1.2" stroke-linecap="round" stroke-linejoin="round" points="311.369259 107.953777 318.872137 107.964638 315.112576 113.57241"></polygon>
                                <polygon id="Fill-54" fill="#90D6E8" points="315.031898 76.0539165 318.814922 81.6453975 311.312044 81.6888405"></polygon>
                                <polygon id="Stroke-56" stroke="#000000" stroke-width="1.2" stroke-linecap="round" stroke-linejoin="round" points="315.031898 76.0539165 318.814922 81.6453975 311.312044 81.6888405"></polygon>
                                <path d="M319.127166,94.795062 C319.123556,97.0197076 317.331312,98.8298342 315.132971,98.8280241 C312.934629,98.8244038 311.1478,97.010657 311.15141,94.7823911 C311.15502,92.5577456 312.945459,90.7494291 315.1438,90.7530494 C317.343946,90.7548595 319.128971,92.5686063 319.127166,94.795062" id="Fill-58" fill="#9197B0"></path>
                                <path d="M319.127166,94.795062 C319.123556,97.0197076 317.331312,98.8298342 315.132971,98.8280241 C312.934629,98.8244038 311.1478,97.010657 311.15141,94.7823911 C311.15502,92.5577456 312.945459,90.7494291 315.1438,90.7530494 C317.343946,90.7548595 319.128971,92.5686063 319.127166,94.795062 Z" id="Stroke-60" stroke="#000000" stroke-width="1.2" stroke-linecap="round" stroke-linejoin="round"></path>
                                <polygon id="Fill-62" fill="#90D6E8" points="328.291795 91.1800582 333.581893 94.8166025 328.282771 98.4368557"></polygon>
                                <polygon id="Stroke-64" stroke="#000000" stroke-width="1.2" stroke-linecap="round" stroke-linejoin="round" points="328.291795 91.1800582 333.581893 94.8166025 328.282771 98.4368557"></polygon>
                                <polygon id="Fill-66" fill="#90D6E8" points="302.528966 98.512519 297.240673 94.8759747 302.539795 91.2557215"></polygon>
                                <polygon id="Stroke-68" stroke="#000000" stroke-width="1.2" stroke-linecap="round" stroke-linejoin="round" points="302.528966 98.512519 297.240673 94.8759747 302.539795 91.2557215"></polygon>
                                <polygon id="Fill-70" fill="#E7F5F8" points="257.242229 92.7427405 237.280278 72.4765633 1.08310732 70.9976899 1.08310732 91.2656772"></polygon>
                                <path d="M262.576727,83.1193835 C262.576727,91.6794722 255.658629,98.6176873 247.123361,98.6176873 C238.589898,98.6176873 231.6718,91.6794722 231.6718,83.1193835 C231.6718,74.5592949 238.589898,67.6210797 247.123361,67.6210797 C255.658629,67.6210797 262.576727,74.5592949 262.576727,83.1193835" id="Fill-72" fill="#12406B"></path>
                                <path d="M262.576727,83.1193835 C262.576727,91.6794722 255.658629,98.6176873 247.123361,98.6176873 C238.589898,98.6176873 231.6718,91.6794722 231.6718,83.1193835 C231.6718,74.5592949 238.589898,67.6210797 247.123361,67.6210797 C255.658629,67.6210797 262.576727,74.5592949 262.576727,83.1193835 Z" id="Stroke-74" stroke="#90D6E9" stroke-width="1.2" stroke-linecap="round" stroke-linejoin="round"></path>
                                <path d="M247.124263,72.0756203 C251.214117,72.0756203 254.782361,74.3111266 256.681093,77.6290886" id="Stroke-76" stroke="#FFFFFF" stroke-width="2" stroke-linecap="round" stroke-linejoin="round"></path>
                                <path d="M283.189156,38.3983962 L275.242278,42.3698139 C274.09979,42.9400038 273.309254,44.0423709 273.125156,45.3185101 L271.850912,54.1989911 C271.390668,57.4101557 267.492132,58.6935354 265.254083,56.3693329 L259.068766,49.9433835 C258.180766,49.020219 256.901107,48.5984595 255.644912,48.8156747 L246.911107,50.3325608 C243.750766,50.8810291 241.341254,47.5250544 242.833888,44.6523835 L246.958034,36.707738 C247.550034,35.5673582 247.550034,34.2043329 246.958034,33.0639532 L242.833888,25.1211177 C241.341254,22.2484468 243.750766,18.890662 246.911107,19.4391304 L255.644912,20.9560165 C256.901107,21.1732316 258.180766,20.7532823 259.068766,19.8301177 L265.254083,13.4041684 C267.492132,11.0799658 271.390668,12.3633456 271.850912,15.5745101 L273.125156,24.4549911 C273.309254,25.7311304 274.09979,26.8334975 275.242278,27.4036873 L283.189156,31.3751051 C286.062522,32.8123456 286.062522,36.9629658 283.189156,38.3983962" id="Fill-78" fill="#12406B"></path>
                                <path d="M283.189156,38.3983962 L275.242278,42.3698139 C274.09979,42.9400038 273.309254,44.0423709 273.125156,45.3185101 L271.850912,54.1989911 C271.390668,57.4101557 267.492132,58.6935354 265.254083,56.3693329 L259.068766,49.9433835 C258.180766,49.020219 256.901107,48.5984595 255.644912,48.8156747 L246.911107,50.3325608 C243.750766,50.8810291 241.341254,47.5250544 242.833888,44.6523835 L246.958034,36.707738 C247.550034,35.5673582 247.550034,34.2043329 246.958034,33.0639532 L242.833888,25.1211177 C241.341254,22.2484468 243.750766,18.890662 246.911107,19.4391304 L255.644912,20.9560165 C256.901107,21.1732316 258.180766,20.7532823 259.068766,19.8301177 L265.254083,13.4041684 C267.492132,11.0799658 271.390668,12.3633456 271.850912,15.5745101 L273.125156,24.4549911 C273.309254,25.7311304 274.09979,26.8334975 275.242278,27.4036873 L283.189156,31.3751051 C286.062522,32.8123456 286.062522,36.9629658 283.189156,38.3983962 Z" id="Stroke-80" stroke="#90D6E9" stroke-width="1.2" stroke-linecap="round" stroke-linejoin="round"></path>
                                <path d="M274.65479,36.8480228 L270.216595,39.0654278 C269.579473,39.3840101 269.137278,39.9994532 269.036205,40.7108329 L268.323278,45.6705797 C268.066985,47.4644152 265.890302,48.1794152 264.641327,46.8815544 L261.18679,43.2938835 C260.690449,42.7779975 259.975717,42.542681 259.275424,42.6639595 L254.396839,43.5129089 C252.631668,43.8188203 251.287034,41.9435291 252.120888,40.339757 L254.423912,35.9049468 C254.754205,35.2659722 254.754205,34.505719 254.423912,33.8685544 L252.120888,29.4337443 C251.287034,27.8299722 252.631668,25.9528709 254.396839,26.2605924 L259.275424,27.1077316 C259.975717,27.2290101 260.690449,26.9936937 261.18679,26.4778076 L264.641327,22.8901367 C265.890302,21.5922759 268.066985,22.3090861 268.323278,24.1029215 L269.036205,29.0608582 C269.137278,29.7740481 269.579473,30.3894911 270.216595,30.7080734 L274.65479,32.9254785 C276.259327,33.7273646 276.259327,36.0461367 274.65479,36.8480228" id="Fill-82" fill="#FBED1D"></path>
                                <path d="M274.65479,36.8480228 L270.216595,39.0654278 C269.579473,39.3840101 269.137278,39.9994532 269.036205,40.7108329 L268.323278,45.6705797 C268.066985,47.4644152 265.890302,48.1794152 264.641327,46.8815544 L261.18679,43.2938835 C260.690449,42.7779975 259.975717,42.542681 259.275424,42.6639595 L254.396839,43.5129089 C252.631668,43.8188203 251.287034,41.9435291 252.120888,40.339757 L254.423912,35.9049468 C254.754205,35.2659722 254.754205,34.505719 254.423912,33.8685544 L252.120888,29.4337443 C251.287034,27.8299722 252.631668,25.9528709 254.396839,26.2605924 L259.275424,27.1077316 C259.975717,27.2290101 260.690449,26.9936937 261.18679,26.4778076 L264.641327,22.8901367 C265.890302,21.5922759 268.066985,22.3090861 268.323278,24.1029215 L269.036205,29.0608582 C269.137278,29.7740481 269.579473,30.3894911 270.216595,30.7080734 L274.65479,32.9254785 C276.259327,33.7273646 276.259327,36.0461367 274.65479,36.8480228 Z" id="Stroke-84" stroke="#000000" stroke-width="1.2"></path>
                                <polygon id="Fill-86" fill="#12406B" points="309.152868 135.719128 299.319893 125.763432 1.08364878 124.481862 1.08364878 134.437558"></polygon>
                                <polygon id="Stroke-88" stroke="#90D6E9" stroke-width="1.2" stroke-linecap="round" stroke-linejoin="round" points="309.152868 135.719128 299.319893 125.763432 1.08364878 124.481862 1.08364878 134.437558"></polygon>
                                <polygon id="Fill-90" fill="#12406B" points="274.32161 128.003101 274.31078 134.077886 289.376098 133.936696 289.388732 128.032063"></polygon>
                                <polygon id="Stroke-92" stroke="#000000" stroke-width="1.2" points="274.32161 128.003101 274.31078 134.077886 289.376098 133.936696 289.388732 128.032063"></polygon>
                                <path d="M351.401815,138.71887 C350.409132,139.421199 349.198059,139.765123 347.983376,139.690908 L295.317034,136.783844 L295.338693,125.209895 L348.023083,122.538148 C349.230546,122.467553 350.44162,122.818718 351.430693,123.521047 L359.669961,129.356895 C360.760107,130.129819 360.776351,131.757123 359.704254,132.555389 L351.401815,138.71887 Z" id="Fill-94" fill="#90D6E8"></path>
                                <path d="M351.401815,138.71887 C350.409132,139.421199 349.198059,139.765123 347.983376,139.690908 L295.317034,136.783844 L295.338693,125.209895 L348.023083,122.538148 C349.230546,122.467553 350.44162,122.818718 351.430693,123.521047 L359.669961,129.356895 C360.760107,130.129819 360.776351,131.757123 359.704254,132.555389 L351.401815,138.71887 Z" id="Stroke-96" stroke="#000000" stroke-width="1.2"></path>
                                <g id="Group-101" transform="translate(296.000000, 130.329114)">
                                    <path d="M0.102697561,0.477511392 L33.8304537,0.555346835" id="Fill-98" fill="#FFFFFF"></path>
                                    <path d="M0.102697561,0.477511392 L33.8304537,0.555346835" id="Stroke-100" stroke="#231F20" stroke-width="1.2" stroke-linecap="round" stroke-linejoin="round"></path>
                                </g>
                                <path d="M295.523693,138.027763 C295.361254,140.297662 293.531107,141.917725 291.477156,141.912295 C290.396034,141.912295 289.379888,141.483295 288.618229,140.708561 C287.854766,139.935637 287.436034,138.903865 287.439644,137.808738 L287.466717,124.178485 C287.466717,123.081548 287.890863,122.053396 288.656132,121.282282 C289.419595,120.509358 290.439351,120.085789 291.520473,120.089409 C293.628571,120.093029 295.399156,121.765586 295.548961,123.894295 L295.523693,138.027763 Z" id="Fill-102" fill="#12406B"></path>
                                <path d="M295.523693,138.027763 C295.361254,140.297662 293.531107,141.917725 291.477156,141.912295 C290.396034,141.912295 289.379888,141.483295 288.618229,140.708561 C287.854766,139.935637 287.436034,138.903865 287.439644,137.808738 L287.466717,124.178485 C287.466717,123.081548 287.890863,122.053396 288.656132,121.282282 C289.419595,120.509358 290.439351,120.085789 291.520473,120.089409 C293.628571,120.093029 295.399156,121.765586 295.548961,123.894295 L295.523693,138.027763 Z" id="Stroke-104" stroke="#000000" stroke-width="1.2"></path>
                                <path d="M276.635102,133.77288 C276.472663,136.042778 274.642517,137.662842 272.588566,137.659222 C271.507444,137.657411 270.491298,137.230222 269.729639,136.453677 C268.966176,135.680753 268.547444,134.648981 268.551054,133.555665 L268.578127,128.431196 C268.578127,127.33607 269.002273,126.307918 269.767541,125.534994 C270.53281,124.76388 271.550761,124.3385 272.631883,124.34212 C274.73998,124.347551 276.510566,126.018297 276.660371,128.148816 L276.635102,133.77288 Z" id="Fill-106" fill="#12406B"></path>
                                <path d="M276.635102,133.77288 C276.472663,136.042778 274.642517,137.662842 272.588566,137.659222 C271.507444,137.657411 270.491298,137.230222 269.729639,136.453677 C268.966176,135.680753 268.547444,134.648981 268.551054,133.555665 L268.578127,128.431196 C268.578127,127.33607 269.002273,126.307918 269.767541,125.534994 C270.53281,124.76388 271.550761,124.3385 272.631883,124.34212 C274.73998,124.347551 276.510566,126.018297 276.660371,128.148816 L276.635102,133.77288 Z" id="Stroke-108" stroke="#000000" stroke-width="1.2"></path>
                            </g>
                        </g>
                    </g>
                </g>
            </g>
        </g>
    </g>
</svg>