<?xml version="1.0" encoding="utf-8"?>
<!-- Generator: Adobe Illustrator 22.1.0, SVG Export Plug-In . SVG Version: 6.00 Build 0)  -->
<svg version="1.1" id="Layer_1" xmlns="http://www.w3.org/2000/svg" xmlns:xlink="http://www.w3.org/1999/xlink" x="0px" y="0px"
	 viewBox="0 0 145.9 34.7" style="enable-background:new 0 0 145.9 34.7;" xml:space="preserve">
<style type="text/css">
	.st0{filter:url(#filter-1);}
	.st1{fill:#E52634;}
	.st2{fill:#FFFFFF;}
</style>
<filter  filterUnits="objectBoundingBox" height="106.7%" id="filter-1" width="101.1%" x="-0.5%" y="-2.7%">
	<feOffset  dx="0" dy="1" in="SourceAlpha" result="shadowOffsetOuter1"></feOffset>
	<feGaussianBlur  in="shadowOffsetOuter1" result="shadowBlurOuter1" stdDeviation="1.5"></feGaussianBlur>
	
		<feColorMatrix  in="shadowBlurOuter1" result="shadowMatrixOuter1" type="matrix" values="0 0 0 0 0   0 0 0 0 0   0 0 0 0 0  0 0 0 0.15 0">
		</feColorMatrix>
	<feMerge>
		<feMergeNode  in="shadowMatrixOuter1"></feMergeNode>
		<feMergeNode  in="SourceGraphic"></feMergeNode>
	</feMerge>
</filter>
<title>Nintendo_Red_Logo@1x</title>
<desc>Created with Sketch.</desc>
<g id="Desktop-_x26_-Mobile">
	<g id="Desktop" transform="translate(-946.000000, -617.000000)">
		<g id="Pre-order-by-console" transform="translate(260.000000, 499.000000)">
			<g id="Stacked-Group" transform="translate(0.000000, 84.000000)" class="st0">
				<g id="Nintento_1_" transform="translate(629.000000, 0.000000)">
					<g id="Logo_1_" transform="translate(60.000000, 36.000000)">
						<g id="Nintendo_Red_Logo_1_">
							<g id="Nintendo_1_">
								<rect id="rect80_1_" x="-14.9" y="-73.4" class="st1" width="171" height="55"/>
							</g>
						</g>
					</g>
				</g>
			</g>
		</g>
	</g>
</g>
<path id="path29" class="st2" d="M19.1,0h107.8c11.4,0,19.1,7.9,19.1,17.4s-7.6,17.3-19.1,17.3H19.1C7.6,34.7,0,26.9,0,17.4
	S7.7,0,19.1,0 M43.1,30.4h83.7c9.1,0,14.6-5.9,14.6-13.1s-5.6-13.1-14.6-13.1l-107.7,0c-9.1,0-14.6,5.9-14.6,13.1
	c0,7.2,5.5,13.1,14.6,13.1H43.1 M132.6,10.4c0.8,0,1.2,0.3,1.2,0.8c0,0.4-0.2,0.6-0.6,0.7l0.6,1.2h-0.8l-0.6-1.1h-0.3v1.1h-0.7v-2.8
	H132.6z M132.5,9.3c-1.4,0-2.6,1.1-2.6,2.5s1.2,2.5,2.6,2.5c1.4,0,2.6-1.1,2.6-2.5S134,9.3,132.5,9.3z M134.6,11.8
	c0,1.1-0.9,2-2.1,2c-1.2,0-2.1-0.9-2.1-2c0-1.1,0.9-2,2.1-2C133.7,9.8,134.6,10.7,134.6,11.8z M132.2,11.6h0.3
	c0.4,0,0.6-0.1,0.6-0.4c0-0.3-0.2-0.4-0.6-0.4h-0.3V11.6z M73.3,18.4c0-1,0-1.6,0.3-2.1c0.4-0.7,1.1-1,1.8-1h0c0.7,0,1.4,0.3,1.8,1
	c0.3,0.5,0.3,1.2,0.3,2.1L73.3,18.4z M77.5,21.7c0,0,0,0,0,0.7c0,2-1.4,2.4-2.1,2.4c-0.8,0-2.1-0.4-2.1-2.4c0-0.6,0-2.2,0-2.2
	s9.6,0,9.6,0c0-3.4-3.4-6.2-7.5-6.2c-4.1,0-7.5,2.7-7.5,6.1s3.4,6.1,7.5,6.1c3.4,0,6.3-1.9,7.2-4.5L77.5,21.7z M93.5,14.1
	c1.9-0.1,5.8,1.1,5.7,5.4c0,0.8,0,5.9,0,5.9h-5.1c0,0,0-6.5,0-7.1c0-0.9-0.9-2-2.3-2c-1.4,0-2.4,1.1-2.4,2c0,0.5,0,7.1,0,7.1h-5.1
	l0-10.9l5,0c0,0,0,0.9,0,1.1C90.5,14.9,91.9,14.2,93.5,14.1L93.5,14.1z M52.2,14.1c1.9-0.1,5.8,1.1,5.7,5.4c0,0.8,0,5.9,0,5.9h-5.1
	c0,0,0-6.5,0-7.1c0-0.9-0.9-2-2.3-2c-1.4,0-2.4,1.1-2.4,2c0,0.5,0,7.1,0,7.1h-5.1l0-10.9l5.1,0c0,0,0,0.9,0,1.1
	C49.1,14.9,50.5,14.2,52.2,14.1L52.2,14.1z M110.2,9.2h5v16.3h-5c0,0,0-0.5,0-0.6c-1.9,1.2-4.1,1.2-5.9,0.4
	c-0.5-0.2-3.5-1.6-3.5-5.4c0-2.9,2.8-6,6.5-5.7c1.2,0.1,2.1,0.5,2.9,1C110.2,12.6,110.2,9.2,110.2,9.2L110.2,9.2z M110.3,20
	c0,0,0-1.4,0-1.9c0-1.7-1.2-2.1-2-2.1c-0.8,0-2,0.4-2,2.1c0,0.6,0,1.9,0,1.9s0,1.4,0,1.9c0,1.7,1.2,2.1,2,2.1c0.8,0,2-0.4,2-2.1
	C110.3,21.2,110.3,20,110.3,20L110.3,20z M126.4,20c0,0,0,1.6,0,2.3c0,1.7-1.1,2.4-2.1,2.4c-1,0-2.1-0.7-2.1-2.4c0-0.7,0-2.3,0-2.3
	s0-1.6,0-2.3c0-1.7,1.1-2.4,2.1-2.4c1,0,2.1,0.7,2.1,2.4C126.4,18.3,126.4,19.5,126.4,20L126.4,20z M124.4,13.9
	c-4.1,0-7.4,2.7-7.4,6.1s3.3,6.1,7.4,6.1c4.1,0,7.4-2.7,7.4-6.1S128.5,13.9,124.4,13.9z M35.2,12.5V9.1h5.1v3.3H35.2z M35.2,25.5
	V14.6l5.1,0v10.9H35.2z M60.7,25.5l0-10.8h-2.8V13l2.8,0l0-2.2h5.1V13h2.8v1.6h-2.8l0,10.8L60.7,25.5z M14.5,25.5l0-16.3h5.3
	L27,20.5l0-11.4h5.2v16.3H27l-7.3-11.4v11.4H14.5z"/>
</svg>
