<?xml version="1.0" encoding="UTF-8"?>
<svg width="57px" height="46px" viewBox="0 0 57 46" version="1.1" xmlns="http://www.w3.org/2000/svg" xmlns:xlink="http://www.w3.org/1999/xlink">
    <!-- Generator: Sketch 51.1 (57501) - http://www.bohemiancoding.com/sketch -->
    <title>PlayStation_logo@2x</title>
    <desc>Created with Sketch.</desc>
    <defs>
        <filter x="-0.5%" y="-2.7%" width="101.1%" height="106.7%" filterUnits="objectBoundingBox" id="filter-1">
            <feOffset dx="0" dy="1" in="SourceAlpha" result="shadowOffsetOuter1"></feOffset>
            <feGaussianBlur stdDeviation="1.5" in="shadowOffsetOuter1" result="shadowBlurOuter1"></feGaussianBlur>
            <feColorMatrix values="0 0 0 0 0   0 0 0 0 0   0 0 0 0 0  0 0 0 0.15 0" type="matrix" in="shadowBlurOuter1" result="shadowMatrixOuter1"></feColorMatrix>
            <feMerge>
                <feMergeNode in="shadowMatrixOuter1"></feMergeNode>
                <feMergeNode in="SourceGraphic"></feMergeNode>
            </feMerge>
        </filter>
        <path d="M50.3477513,29.971501 C49.3554416,31.2218986 46.9242842,32.1138871 46.9242842,32.1138871 C46.9242842,32.1138871 28.8388611,38.6021225 28.8388611,38.6021225 C28.8388611,38.6021225 28.8388611,33.8171938 28.8388611,33.8171938 C28.8388611,33.8171938 42.148503,29.0806657 42.148503,29.0806657 C43.6588909,28.5401729 43.8908138,27.7761044 42.6631201,27.3750552 C41.437733,26.9728528 39.2188842,27.0880987 37.7073419,27.6308978 C37.7073419,27.6308978 28.8388611,30.7505523 28.8388611,30.7505523 C28.8388611,30.7505523 28.8388611,25.7846881 28.8388611,25.7846881 C28.8388611,25.7846881 29.3500172,25.6118218 29.3500172,25.6118218 C29.3500172,25.6118218 31.9127146,24.7060046 35.516184,24.3072606 C39.1196533,23.910821 43.5319664,24.3614252 46.9958217,25.6729016 C50.8992905,26.9048595 51.3389065,28.7211059 50.3477513,29.971501 Z M30.5604057,21.8237526 C30.5604057,21.8237526 30.5604057,9.58714706 30.5604057,9.58714706 C30.5604057,8.1500551 30.2950192,6.82705412 28.9450168,6.45251087 C27.9111695,6.12176024 27.269628,7.08058995 27.269628,8.51652955 C27.269628,8.51652955 27.269628,39.1599045 27.269628,39.1599045 C27.269628,39.1599045 18.9953826,36.5369523 18.9953826,36.5369523 C18.9953826,36.5369523 18.9953826,0 18.9953826,0 C22.5134659,0.652281896 27.6388584,2.19424597 30.3942502,3.12196078 C37.4015723,5.52479607 39.7773455,8.51537873 39.7773455,15.253694 C39.7773455,21.8214479 35.7181069,24.3107176 30.5604057,21.8237526 Z M3.81304404,33.3170348 C-0.194271562,32.1899498 -0.861195949,29.8412773 0.965346091,28.488313 C2.65342664,27.2390684 5.52420135,26.2986769 5.52420135,26.2986769 C5.52420135,26.2986769 17.3880703,22.0853565 17.3880703,22.0853565 C17.3880703,22.0853565 17.3880703,26.888726 17.3880703,26.888726 C17.3880703,26.888726 8.8507463,29.9403871 8.8507463,29.9403871 C7.34266649,30.4808799 7.11074281,31.2461015 8.33612994,31.6471507 C9.56267083,32.0481974 11.7826754,31.9341072 13.293063,31.3924612 C13.293063,31.3924612 17.3880703,29.9081175 17.3880703,29.9081175 C17.3880703,29.9081175 17.3880703,34.2055664 17.3880703,34.2055664 C17.1284557,34.2516632 16.8388392,34.29776 16.5711462,34.3427063 C12.4749844,35.0111217 8.11228338,34.732232 3.81304404,33.3170348 Z M47.7123618,35.2197118 C48.23044,35.2197118 48.7162092,35.4202377 49.0819786,35.7901705 C49.4477505,36.1543402 49.6496735,36.640672 49.6496735,37.1569646 C49.6496735,37.6755608 49.4477505,38.1595864 49.0819786,38.5237587 C48.7162092,38.8913853 48.23044,39.0919112 47.7123618,39.0919112 C47.1942837,39.0919112 46.7096665,38.8913853 46.3427426,38.5237587 C45.9769732,38.1595864 45.7762047,37.6755608 45.7762047,37.1569646 C45.7762047,36.0898036 46.6438965,35.2197118 47.7123618,35.2197118 Z M46.1015885,37.1569646 C46.1015885,37.586824 46.268896,37.9913301 46.5735135,38.2932695 C46.8769739,38.5998188 47.283129,38.7657689 47.7123618,38.7657689 C48.6019769,38.7657689 49.3231326,38.0443431 49.3231326,37.1569646 C49.3231326,36.725952 49.1569797,36.321446 48.8512102,36.0183534 C48.5477472,35.7118041 48.1415922,35.5470046 47.7123618,35.5470046 C47.283129,35.5470046 46.8769739,35.7118041 46.5735135,36.0183534 C46.268896,36.321446 46.1015885,36.725952 46.1015885,37.1569646 Z M48.297362,36.1140065 C48.5096706,36.2073532 48.6169782,36.3871331 48.6169782,36.6429757 C48.6169782,36.7743551 48.5892848,36.8849885 48.5327485,36.9714216 C48.4923629,37.0336519 48.4346695,37.0843613 48.370054,37.1281518 C48.4208228,37.1581177 48.465824,37.1938415 48.4992875,37.235331 C48.5454381,37.2952576 48.571977,37.3909081 48.5754406,37.5211343 C48.5754406,37.5211343 48.5858314,37.7965672 48.5858314,37.7965672 C48.589295,37.8703237 48.5939132,37.9267935 48.6054585,37.9613668 C48.6170039,38.0120735 48.6389195,38.0443431 48.6666104,38.0547161 C48.6666104,38.0547161 48.6954583,38.0685536 48.6954583,38.0685536 C48.6954583,38.0685536 48.6954583,38.09967 48.6954583,38.09967 C48.6954583,38.09967 48.6954583,38.14692 48.6954583,38.14692 C48.6954583,38.14692 48.6954583,38.1941827 48.6954583,38.1941827 C48.6954583,38.1941827 48.6481506,38.1941699 48.6481506,38.1941699 C48.6481506,38.1941699 48.3054565,38.1941699 48.3054565,38.1941699 C48.3054565,38.1941699 48.2777657,38.1941699 48.2777657,38.1941699 C48.2777657,38.1941699 48.2639113,38.1699799 48.2639113,38.1699799 C48.2523659,38.146943 48.2443098,38.1204263 48.2362204,38.085853 C48.2304477,38.0547366 48.224675,38.000573 48.2212114,37.9175967 C48.2212114,37.9175967 48.2038934,37.575321 48.2038934,37.575321 C48.1992753,37.4566208 48.1588922,37.3828644 48.0827391,37.3436812 C48.0354314,37.3217974 47.9569692,37.3114142 47.8508162,37.3114142 C47.8508162,37.3114142 47.263507,37.3114142 47.263507,37.3114142 C47.263507,37.3114142 47.263507,38.1469328 47.263507,38.1469328 C47.263507,38.1469328 47.263507,38.1941827 47.263507,38.1941827 C47.263507,38.1941827 47.2150448,38.1941827 47.2150448,38.1941827 C47.2150448,38.1941827 46.9358116,38.1941827 46.9358116,38.1941827 C46.9358116,38.1941827 46.8885065,38.1941827 46.8885065,38.1941827 C46.8885065,38.1941827 46.8885065,38.1469328 46.8885065,38.1469328 C46.8885065,38.1469328 46.8885065,36.087523 46.8885065,36.087523 C46.8885065,36.087523 46.8885065,36.0402731 46.8885065,36.0402731 C46.8885065,36.0402731 46.9358116,36.0402731 46.9358116,36.0402731 C46.9358116,36.0402731 47.8900447,36.0402731 47.8900447,36.0402731 C48.0538937,36.0402731 48.1912012,36.0644631 48.2973543,36.114027 L48.297362,36.1140065 Z M47.2635147,36.9817921 C47.2635147,36.9817921 47.861207,36.9817921 47.861207,36.9817921 C47.9812068,36.9817921 48.0769767,36.9598827 48.1450532,36.9149518 C48.2073621,36.8700056 48.2373621,36.7881824 48.2373621,36.6694822 C48.2373621,36.5404091 48.19467,36.4562796 48.1046701,36.4113359 C48.0550559,36.3871459 47.9858223,36.3733059 47.898129,36.3733059 C47.898129,36.3733059 47.2635147,36.3733059 47.2635147,36.3733059 C47.2635147,36.3733059 47.2635147,36.9817921 47.2635147,36.9817921 Z" id="path-2"></path>
    </defs>
    <g id="Desktop-&amp;-Mobile" stroke="none" stroke-width="1" fill="none" fill-rule="evenodd">
        <g id="Desktop" transform="translate(-384.000000, -624.000000)">
            <g id="Pre-order-by-console" transform="translate(260.000000, 499.000000)">
                <g id="Stacked-Group" filter="url(#filter-1)" transform="translate(0.000000, 84.000000)">
                    <g id="PS">
                        <g id="Logo" transform="translate(113.000000, 35.000000)">
                            <g id="Stacked-Group">
                                <g id="VendorLogos/PlayStation_logo" transform="translate(12.000000, 0.000000)">
                                    <g id="PlayStation_logo" transform="translate(2.100239, 8.420048)">
                                        <g id="colour/white">
                                            <mask id="mask-3" fill="white">
                                                <use xlink:href="#path-2"></use>
                                            </mask>
                                            <use id="Mask" fill="#1F1F1F" xlink:href="#path-2"></use>
                                            <g mask="url(#mask-3)" fill="#FFFFFF" id="Rectangle-3">
                                                <g transform="translate(-2.100239, -8.420048)">
                                                    <rect x="0" y="0" width="55" height="56"></rect>
                                                </g>
                                            </g>
                                        </g>
                                    </g>
                                </g>
                            </g>
                        </g>
                    </g>
                </g>
            </g>
        </g>
    </g>
</svg>