<?xml version="1.0" encoding="UTF-8"?>
<svg width="49px" height="49px" viewBox="0 0 49 49" version="1.1" xmlns="http://www.w3.org/2000/svg" xmlns:xlink="http://www.w3.org/1999/xlink">
    <!-- Generator: Sketch 51.1 (57501) - http://www.bohemiancoding.com/sketch -->
    <title>Xbox_logo@1x</title>
    <desc>Created with Sketch.</desc>
    <defs>
        <filter x="-0.5%" y="-2.7%" width="101.1%" height="106.7%" filterUnits="objectBoundingBox" id="filter-1">
            <feOffset dx="0" dy="1" in="SourceAlpha" result="shadowOffsetOuter1"></feOffset>
            <feGaussianBlur stdDeviation="1.5" in="shadowOffsetOuter1" result="shadowBlurOuter1"></feGaussianBlur>
            <feColorMatrix values="0 0 0 0 0   0 0 0 0 0   0 0 0 0 0  0 0 0 0.15 0" type="matrix" in="shadowBlurOuter1" result="shadowMatrixOuter1"></feColorMatrix>
            <feMerge>
                <feMergeNode in="shadowMatrixOuter1"></feMergeNode>
                <feMergeNode in="SourceGraphic"></feMergeNode>
            </feMerge>
        </filter>
        <path d="M18.9081353,41.942075 C15.6722944,41.6320631 12.3964204,40.4701287 9.58239102,38.6339794 C7.22434764,37.096125 6.69220121,36.4629196 6.69220121,35.2009025 C6.69220121,32.6656398 9.4798674,28.2244139 14.249657,23.1626761 C16.9577453,20.2871325 20.7306148,16.9184991 21.1382682,17.0093058 C21.932094,17.1865252 28.2739125,23.3726054 30.648555,26.2852528 C34.4028725,30.8890518 36.1281986,34.6599684 35.2513775,36.3408676 C34.584974,37.6185073 30.448878,40.1161781 27.4107613,41.0755063 C24.9062555,41.8664028 21.6172,42.2013133 18.9081353,41.942075 Z M3.50713392,32.565069 C1.54746805,29.5586857 0.557382754,26.5991704 0.0799155846,22.3185649 C-0.078263723,20.9052035 -0.0226080407,20.0972197 0.437771858,17.1953129 C1.01043954,13.5825756 3.06921157,9.39863531 5.54442481,6.82578052 C6.59797711,5.73219519 6.691713,5.70290272 7.97667577,6.13740761 C9.53405846,6.66467197 11.1988469,7.8148894 13.7814658,10.1504752 L15.2900277,11.5145277 L14.4649566,12.5251177 C10.6432664,17.216794 6.6096941,23.8710655 5.09136803,27.9866568 C4.26629695,30.2226482 3.93431569,32.4684038 4.29070734,33.4033216 C4.52992913,34.0350625 4.31023565,33.7997463 3.50469288,32.5665336 L3.50713392,32.565069 Z M37.9028338,33.0762225 C38.0966523,32.1310523 37.851572,30.395962 37.2779279,28.645249 C36.0354392,24.8543159 31.8812795,17.8021551 28.0669125,13.0069787 L26.8659214,11.4974404 L28.1655304,10.3047489 C29.8615641,8.74736619 31.0391212,7.8148894 32.3104141,7.02252824 C33.3127046,6.39762234 34.7455943,5.84448297 35.3617125,5.84448297 C35.7410499,5.84448297 37.0782509,7.23587502 38.15719,8.74931902 C39.8288133,11.0927162 41.0581204,13.9389673 41.6810735,16.8975062 C42.0838449,18.8112805 42.1175312,22.9024614 41.7460051,24.8113536 C41.4384342,26.3775241 40.794,28.4074919 40.1690941,29.7847259 C39.6955326,30.8163088 38.5287161,32.8204016 38.016098,33.4726471 C37.7524658,33.8080459 37.7524658,33.8075577 37.8989281,33.0840338 L37.9028338,33.0762225 Z M19.2547628,5.12877042 C17.4942856,4.23535026 14.7788742,3.27602205 13.2791,3.01727195 C12.7537885,2.92695352 11.8569509,2.8756917 11.2872125,2.90498417 C10.0491176,2.96747476 10.1042851,2.90303134 12.0893378,1.96518427 C13.7394799,1.18551651 15.1162258,0.727089442 16.9860614,0.33457042 C19.0877957,-0.107257584 23.0398374,-0.112139662 25.1083736,0.32382985 C27.341924,0.794950318 29.9728755,1.77380684 31.4550742,2.68675531 L31.896414,2.9572224 L30.8858239,2.90644879 C28.8763609,2.80490158 25.9480909,3.61679105 22.804033,5.14585769 C21.8559336,5.60770221 21.0318389,5.97581085 20.9713012,5.96604669 C20.9112516,5.95432971 20.1384188,5.57792154 19.2528099,5.12877042 L19.2547628,5.12877042 Z" id="path-2"></path>
    </defs>
    <g id="Desktop-&amp;-Mobile" stroke="none" stroke-width="1" fill="none" fill-rule="evenodd">
        <g id="Desktop" transform="translate(-702.000000, -623.000000)">
            <g id="Pre-order-by-console" transform="translate(260.000000, 499.000000)">
                <g id="Stacked-Group" filter="url(#filter-1)" transform="translate(0.000000, 84.000000)">
                    <g id="Xbox" transform="translate(313.000000, 0.000000)">
                        <g id="Logo" transform="translate(126.000000, 36.000000)">
                            <g id="Stacked-Group">
                                <g id="VendorLogos/XboxOne_logo">
                                    <g id="PlayStation_logo" transform="translate(6.431981, 6.431981)">
                                        <g id="colour/white">
                                            <mask id="mask-3" fill="white">
                                                <use xlink:href="#path-2"></use>
                                            </mask>
                                            <use id="Mask" fill="#107C10" fill-rule="nonzero" xlink:href="#path-2"></use>
                                            <g mask="url(#mask-3)" fill="#FFFFFF" id="Rectangle-3">
                                                <g transform="translate(-6.431981, -6.431981)">
                                                    <rect x="0" y="0" width="55" height="55"></rect>
                                                </g>
                                            </g>
                                        </g>
                                    </g>
                                </g>
                            </g>
                        </g>
                    </g>
                </g>
            </g>
        </g>
    </g>
</svg>